<?xml version="1.0" encoding="utf-8"?>
<!-- Generator: Adobe Illustrator 27.3.1, SVG Export Plug-In . SVG Version: 6.00 Build 0)  -->
<svg version="1.1" xmlns="http://www.w3.org/2000/svg" xmlns:xlink="http://www.w3.org/1999/xlink" x="0px" y="0px"
	 viewBox="0 0 595.3 258" style="enable-background:new 0 0 595.3 258;" xml:space="preserve">
<style type="text/css">
	.st0{fill:none;stroke:#585858;stroke-width:1.9843;stroke-miterlimit:11.3386;}
	.st1{fill:#FFFFFF;}
	.st2{display:none;clip-path:url(#SVGID_00000078748718066139758630000008481662942115450301_);enable-background:new    ;}
	.st3{fill:#2C2D34;}
	.st4{fill:#288A3D;}
	.st5{fill:#FF2E17;}
</style>
<g id="Capa_2">
</g>
<g id="svg8" xmlns:inkscape="http://www.inkscape.org/namespaces/inkscape" xmlns:cc="http://creativecommons.org/ns#" xmlns:sodipodi="http://sodipodi.sourceforge.net/DTD/sodipodi-0.dtd" xmlns:ooo="http://xml.openoffice.org/svg/export" xmlns:dc="http://purl.org/dc/elements/1.1/" xmlns:svg="http://www.w3.org/2000/svg" xmlns:rdf="http://www.w3.org/1999/02/22-rdf-syntax-ns#">
	<defs>
		
			<inkscape:path-effect  deform_type="perspective" down_left_point="116.74,92.298828" down_right_point="131.23438,92.298828" effect="perspective-envelope" horizontal_mirror="false" id="path-effect1399" is_visible="true" lpeversion="1" overflow_perspective="false" up_left_point="119.04,87.439453" up_right_point="133.53,87.439453" vertical_mirror="false">
			</inkscape:path-effect>
		
			<inkscape:path-effect  deform_type="perspective" down_left_point="116.74,92.298828" down_right_point="131.23438,92.298828" effect="perspective-envelope" horizontal_mirror="false" id="path-effect985" is_visible="true" lpeversion="1" overflow_perspective="false" up_left_point="119.04,87.439453" up_right_point="133.53,87.439453" vertical_mirror="false">
			</inkscape:path-effect>
		
			<inkscape:perspective  id="perspective47" inkscape:persp3d-origin="487.36499 : 217.87667 : 1" inkscape:vp_x="0 : 326.815 : 1" inkscape:vp_y="0 : 1000 : 0" inkscape:vp_z="974.72998 : 326.815 : 1" sodipodi:type="inkscape:persp3d">
			</inkscape:perspective>
		
			<inkscape:perspective  id="perspective26882" inkscape:persp3d-origin="372.04724 : 350.78739 : 1" inkscape:vp_x="0 : 526.18109 : 1" inkscape:vp_y="0 : 1000 : 0" inkscape:vp_z="744.09448 : 526.18109 : 1" sodipodi:type="inkscape:persp3d">
			</inkscape:perspective>
		
			<inkscape:perspective  id="perspective76809" inkscape:persp3d-origin="227.08525 : 149.90885 : 1" inkscape:vp_x="0 : 224.86328 : 1" inkscape:vp_y="0 : 1000 : 0" inkscape:vp_z="454.1705 : 224.86328 : 1" sodipodi:type="inkscape:persp3d">
			</inkscape:perspective>
		
			<inkscape:perspective  id="perspective76559" inkscape:persp3d-origin="372.04724 : 350.78739 : 1" inkscape:vp_x="0 : 526.18109 : 1" inkscape:vp_y="0 : 1000 : 0" inkscape:vp_z="744.09448 : 526.18109 : 1" sodipodi:type="inkscape:persp3d">
			</inkscape:perspective>
		
			<inkscape:perspective  id="perspective67867" inkscape:persp3d-origin="372.04724 : 350.78739 : 1" inkscape:vp_x="0 : 526.18109 : 1" inkscape:vp_y="0 : 1000 : 0" inkscape:vp_z="744.09448 : 526.18109 : 1" sodipodi:type="inkscape:persp3d">
			</inkscape:perspective>
		
			<inkscape:perspective  id="perspective2450" inkscape:persp3d-origin="372.04724 : 350.78739 : 1" inkscape:vp_x="0 : 526.18109 : 1" inkscape:vp_y="0 : 1000 : 0" inkscape:vp_z="744.09448 : 526.18109 : 1" sodipodi:type="inkscape:persp3d">
			</inkscape:perspective>
		
			<inkscape:perspective  id="perspective6125" inkscape:persp3d-origin="372.04724 : 350.78739 : 1" inkscape:vp_x="0 : 526.18109 : 1" inkscape:vp_y="0 : 1000 : 0" inkscape:vp_z="744.09448 : 526.18109 : 1" sodipodi:type="inkscape:persp3d">
			</inkscape:perspective>
		
			<inkscape:perspective  id="perspective6123" inkscape:persp3d-origin="227.08525 : 149.90885 : 1" inkscape:vp_x="0 : 224.86328 : 1" inkscape:vp_y="0 : 1000 : 0" inkscape:vp_z="454.1705 : 224.86328 : 1" sodipodi:type="inkscape:persp3d">
			</inkscape:perspective>
		
			<inkscape:perspective  id="perspective6121" inkscape:persp3d-origin="372.04724 : 350.78739 : 1" inkscape:vp_x="0 : 526.18109 : 1" inkscape:vp_y="0 : 1000 : 0" inkscape:vp_z="744.09448 : 526.18109 : 1" sodipodi:type="inkscape:persp3d">
			</inkscape:perspective>
		
			<inkscape:perspective  id="perspective6119" inkscape:persp3d-origin="372.04724 : 350.78739 : 1" inkscape:vp_x="0 : 526.18109 : 1" inkscape:vp_y="0 : 1000 : 0" inkscape:vp_z="744.09448 : 526.18109 : 1" sodipodi:type="inkscape:persp3d">
			</inkscape:perspective>
		
			<inkscape:perspective  id="perspective6117" inkscape:persp3d-origin="372.04724 : 350.78739 : 1" inkscape:vp_x="0 : 526.18109 : 1" inkscape:vp_y="0 : 1000 : 0" inkscape:vp_z="744.09448 : 526.18109 : 1" sodipodi:type="inkscape:persp3d">
			</inkscape:perspective>
	</defs>
	
		<sodipodi:namedview  bordercolor="#666666" borderopacity="1.0" id="base" inkscape:current-layer="layer1" inkscape:cx="374.763" inkscape:cy="402.23952" inkscape:document-rotation="0" inkscape:document-units="mm" inkscape:pageopacity="0.0" inkscape:pageshadow="2" inkscape:window-height="900" inkscape:window-maximized="0" inkscape:window-width="1440" inkscape:window-x="0" inkscape:window-y="0" inkscape:zoom="0.90688728" pagecolor="#ffffff" showgrid="false">
		</sodipodi:namedview>
	<g id="layer1" inkscape:groupmode="layer" inkscape:label="Capa 1">
		<path id="path4457" class="st0" d="M308.8,27.5l0.1,2.2v0.1c5,14,5.3,18.1,6.7,24.6l0,0l0,0c0,0,1.2,4.8,2.1,7.1l0,0l3.7,4.7l0,0
			c3,2.6,5.7,5.5,7.5,8.5c0.7,3.6-0.2,6.1-1.7,7.7c-0.3-0.1-1.1-0.5-2.1-0.6c-0.6-0.1-1.2-0.1-1.7,0.1c-0.2,0.1-0.4,0.4-0.5,0.7
			s0,0.5,0.1,0.9c-0.1,0.8,0.3,1.9,0.9,3.2c0.7,1.3,1.6,2.8,2.8,4.2c2.4,2.8,5.7,5.3,9.4,5.6c3.3,3.9,6.2,8.6,9.3,12.9v0.1h0.1
			c0.2,0.1,0.2,0.2,0.3,0.4c0.1,0.2,0.1,0.5,0.1,0.8c-0.1,0.6-0.3,1.5-0.6,2.3c-0.3,0.9-0.6,1.8-0.8,2.6c-0.2,0.8-0.3,1.6,0.1,2.2
			c0.8,1.4,2,2.6,3.2,3.8c0.9,1,1.7,2.1,2.3,3.4c0.2,0.3,0.4,0.5,0.8,0.7c0.3,0.2,0.7,0.4,1.1,0.6c0.8,0.5,1.8,1.1,2.7,2.3
			c2.4,3.1,4.9,8.2,7.2,11.9l0.1,0.2l5.9-0.1l0.1-0.3c0.4-1.6,0.9-3,0.9-4.6s-0.4-3.3-1.8-5.6c-1.6-2.8-2.9-4-4.1-4.6
			c-1.2-0.5-2.2-0.5-3.3-0.6c-0.5-0.3-0.8-0.9-1-2c-0.2-1.2-0.2-2.9,0-5.5v-0.1l-2.7-6l-3.3-13.5v-0.1c-2.2-3-4.5-4.3-7.1-8.8
			c-1.3-2.3-3.4-5.2-3.9-9.7c-0.2-2.1-1-4-1.5-6.2v-0.1l-0.1-0.1c-3.6-3.7-7.4-9.4-10.7-19.1c0-2.5-0.4-6.3-1.1-9.6
			c-0.3-1.5,0-2.8,0.4-3.6c0.2-0.3,0.3-0.4,0.4-0.5c0.1,0.4,0.4,0.9,0.8,1.4c0.5,0.5,1.2,1.1,1.9,1.7c1.6,1.2,3.6,2.3,5.7,2.8
			c1.9,0.4,3.3,2.6,3.4,2.7v5.3V54c3.1,5.3,4,12.2,5.7,18.9V73l0.1,0.1c4.6,5.3,6.8,8.9,9,12.6l0.1,0.2h0.2c0.7,0.1,1.4,0.1,1.9,0.2
			c0.6,0.2,1,0.4,1.2,1.1c0.6,1.5,1.5,4,2,6.3v0.1l6.2,5l3.4,12.5l0.1,0.1c1.6,1.9,3.3,3.1,5,4c0.9,0.8,1.8,1.2,2.6,1.8
			c0.8,0.6,1.6,1.2,2.3,2.3c0,1.4,0,2.4,0.4,3.8v0.1l0.1,0.1c4.9,4.9,9.6,10.9,14,17.5l6.9,30.8l0,0l0,0c0.5,4.9,2.8,8.7,6.3,12.3
			l0.1,0.1l4.4,1.6c3.4,2.7,6.4,5.6,7.9,9.3l0.1,0.2l0.2,0.1c1.4,0.5,2.8,0.7,4.1,1.3c3.4,1.7,7,3.5,10.5,3.1c3.6,4.5,8,6.6,15.9,10
			c2.5,1.1,4.7,2.1,6.7,4.2l0.1,0.1h0.2c3.2-0.6,6,0.3,8.8,1.7c2.8,1.5,5.5,3.5,8.4,5h0.1h0.1c4.2,0.7,8.4,0.6,12.2,3.2l0.2,0.1
			l17.3-8c2.6,1.5,5.2,2.7,8.1,3c6,4.7,9,10.9,15.5,13.8l0.5,0.2v-0.5c0.4-5.1,0-10.6,2.5-14.1l0,0l0,0c0.2-0.6,1.2-1.2,2.5-1.6
			s3.1-0.6,4.8-0.5c1.6,0.1,3.2-0.2,4.4-1.2c1.4-1.2,1.6-3.2,0.9-4.6c-0.8-1.7-1.8-2.8-4.1-4.5c-2.1-1.5-2.8-2.2-3.4-3.2
			c0.3,0,0.7-0.1,1.2-0.3c0.5-0.3,1-0.9,1.3-1.8c0.3-0.8,0.3-2.1,0.1-3.6c4.2-1.1,7.1-1.1,13-1.6c2.5-0.2,4.7-0.5,6.4-1.5
			c1.5-0.9,2.4-2.5,2.7-4.9c0.1,0.1,0.1,0.1,0.2,0.2c0.7,0.7,2.1,1.3,4.6,0.7h0.1h0.1c2.2-1.7,3.1-4.3,3.4-7.5
			c0.3-3.1,0.1-6.7-0.1-10.3v-0.3l-22.7-3.7l-6.5,3l-0.1,0.1c-1.4,2.9-3,5.8-2.8,9.5c-2.2,1.7-4.9,3.2-6.8,5.6l-0.1,0.2l0.1,0.2
			c0,0,0.2,0.4,0.3,0.7c0.1,0.2,0.1,0.4,0.1,0.5s0,0.1,0,0.1s-0.1,0-0.3-0.1s-0.4-0.3-0.6-0.5c-0.4-0.4-0.7-0.9-0.7-0.9l-0.1-0.1
			h-0.1c-2.3-0.8-4.4-0.5-6.3,0.6l0,0l0,0c-5,3.3-6.4,2.4-8.9,2.5h-0.1l-0.1,0.1c-2.4,1.9-4.8,3.5-7.1,4c-1.6-1.6-3.6-3.5-6.4-4.8
			l0,0l0,0c-5.7-1.4-8.2-3.7-10.4-6.8c-0.5-4-2.3-7.7-5.4-10.4l-9.4-31.8c-0.2-2.4-1-5-1.4-7.4s-0.3-4.6,1-6.1l0,0l0,0
			c1.2-2.1,1.9-3.7,2.1-6.2c0.1-2.4-0.3-5.6-1.6-10.8l-0.1-0.2h-0.2c-5-1-8.1-3.4-12.9-7.1c0.2-0.1,0.3-0.2,0.4-0.4
			c0.2-0.6,0-1.4-0.8-2.1c-2.3-1.8-3.4-4.3-3.3-6.8v-0.2l-0.1-0.1c-2.3-1.8-3.5-3.2-5.6-6.6c-2.6-4.2-3.9-8.9-6.4-14.7V71l-0.1-0.1
			c-1.6-0.8-2.8-2.3-4.6-2.9c-3.7-1.1-7.3-1.7-10.1-0.8c-2.8,0.8-4.8,3.2-5.3,7.5c-0.6,0.2-1.1,0.4-1.4,0.7
			c-0.2,0.2-0.3,0.5-0.4,0.8c-6.5-3.9-11.7-9.1-13.3-18.4v-0.1l-0.1-0.1c-1.2-1.1-2.7-1.6-3.7-2.4c-4.2-3.9-7.5-8-8.7-9.8l-0.1-0.1
			h-0.1c-4.6-1.1-9.8-1-15.2-0.2h-0.3v0.2c-0.3,1.2-0.7,1.9-1.3,2.4c-0.6,0.5-1.4,0.7-2.3,0.7c-1.9,0.1-4.2-0.6-6.5-1h-0.1h-0.1
			c-4,1.4-9.1,0.7-14.6-1.4c-5.5-2-11.6-5.3-17.6-8.8c-3.4-2-6.7-3.8-10.4-5.2l-1-3.1L308.8,27.5z"/>
		<g id="XMLID_00000091705563069334245080000016964444901261221009_">
			<g>
				<path class="st1" d="M325.3,82.1c1,0.2,2.2,0.7,2.2,0.7l0.2,0.1l0.2-0.2c1.9-1.9,2.8-4.7,2-8.6V74v-0.1c-1.8-3.2-4.6-6-7.6-8.7
					l-3.6-4.5c-0.8-2.2-2-6.9-2-7c-0.7-3.2-1.1-6-2-9.6c-0.9-3.6-2.2-8.2-4.7-15.1l-0.5-0.7l19.2,1.6l1,2.9l0.2,0.1
					c3.7,1.4,7,3.2,10.4,5.2c6.1,3.5,12.1,6.8,17.8,8.8c5.6,2,10.7,2.8,14.9,1.4c2.1,0.4,4.3,1,6.2,1c0.1,0,0.3,0,0.4,0
					c1,0,2-0.3,2.8-0.8c0.7-0.5,1.2-1.4,1.5-2.5c5.3-0.8,10.3-0.9,14.7,0.2c1.3,1.9,4.5,5.9,8.7,9.8c1.1,1,2.6,1.5,3.6,2.4
					c1.6,9.6,7.2,15.1,13.9,19.1l0.4,0.2l0.1-0.4c0.1-0.4,0.3-0.8,0.5-1c0.2-0.3,0.5-0.5,1.2-0.6l0.3-0.1v-0.3
					c0.5-4.3,2.3-6.3,4.9-7.1c2.6-0.8,6.1-0.3,9.7,0.8c1.5,0.4,2.6,1.8,4.3,2.7c2.5,5.7,3.8,10.4,6.4,14.7c2,3.3,3.4,4.9,5.7,6.6
					c0,2.6,1.1,5.3,3.5,7.2c0.6,0.5,0.7,1,0.6,1.2c0,0.1-0.1,0.2-0.2,0.2c-0.1,0-0.1,0-0.2-0.1l-0.5,0.6c2.6,2,4.7,3.6,6.8,4.9
					c2.1,1.3,4.2,2.2,6.8,2.8c1.2,5,1.6,8.1,1.5,10.4c-0.1,2.3-0.8,3.8-2,5.8v-0.1c-1.5,1.8-1.6,4.2-1.2,6.7s1.2,5.1,1.4,7.5l9.4,32
					l0.1,0.1c3,2.7,4.8,6.2,5.3,10.2v0.1l0.1,0.1c2.3,3.2,5,5.7,10.8,7.1h-0.1c2.8,1.3,4.8,3.2,6.4,4.8l0.1,0.1h0.2
					c2.5-0.5,5-2.2,7.4-4.1c2.3-0.1,4.1,0.7,9.2-2.7c1.1-0.6,2.2-0.9,3.4-0.9c0.7,0,1.4,0.1,2.2,0.3c0.1,0.1,0.3,0.4,0.7,0.8
					c0.2,0.2,0.5,0.5,0.8,0.6c0.3,0.2,0.7,0.3,1,0.1c0.3-0.1,0.4-0.5,0.5-0.7c0-0.3,0-0.5-0.1-0.8c-0.1-0.3-0.2-0.5-0.2-0.6
					c1.7-2.2,4.4-3.7,6.6-5.4l0.2-0.1v-0.2c-0.3-3.5,1.3-6.3,2.7-9.3l6.1-2.8l21.8,3.5c0.2,3.5,0.4,6.9,0.1,9.9s-1.2,5.4-3.1,6.9
					c-2.2,0.5-3.3-0.1-3.8-0.5c-0.3-0.2-0.4-0.5-0.5-0.6c0,0,0-0.1-0.1-0.2h-0.1h-0.2l-0.2,0.1c0,0,0,0,0,0.1c0,0.1,0,0.1,0,0.1
					s0,0.1,0,0.1c0,0.1,0,0.1,0,0.2c-0.1,2.6-1,3.9-2.4,4.8c-1.4,0.9-3.5,1.2-6,1.4c-6,0.6-8.9,0.5-13.4,1.7l-0.3,0.1v0.3
					c0.2,1.7,0.1,2.9-0.1,3.7c-0.2,0.8-0.6,1.2-1,1.4c-0.4,0.2-0.7,0.3-1.1,0.3c-0.2,0-0.3,0-0.4,0c-0.1,0-0.1,0-0.2,0.1
					c0,0-0.1,0-0.1,0.1l-0.1,0.1v0.1v0.1v0.1c0,0.1,0,0.1,0,0.1c0.4,0.6,0.8,1.1,1.4,1.7c0.6,0.6,1.5,1.2,2.7,2.1
					c2.3,1.7,3.1,2.6,3.9,4.2c0.6,1.1,0.5,2.7-0.7,3.7c-1,0.8-2.4,1.1-3.8,1c-1.8-0.1-3.6,0.1-5.1,0.5s-2.6,1.1-3,2
					c-2.6,3.6-2.3,8.9-2.6,13.7c-5.9-2.9-8.9-8.7-14.9-13.3l-0.1-0.1H514c-2.9-0.2-5.6-1.5-8.2-3.1l-0.2-0.1l-17.3,8
					c-3.9-2.6-8.2-2.6-12.2-3.3c-2.8-1.5-5.5-3.5-8.4-5c-2.8-1.5-5.8-2.4-9.1-1.8c-2-2-4.3-3.2-6.7-4.2c-8-3.4-12.3-5.5-15.8-9.9
					l-0.1-0.2h-0.2c-3.3,0.5-6.8-1.3-10.3-3c-1.4-0.7-2.8-0.9-4.1-1.3c-1.6-3.8-4.6-6.8-8-9.5l-4.3-1.6c-3.5-3.5-5.6-7.1-6.1-11.9
					l-6.9-31v-0.1c-4.4-6.7-9.1-12.7-14-17.6c-0.3-1.5-0.4-2.3-0.4-3.8v-0.1l-0.1-0.1c-0.7-1.2-1.6-2-2.5-2.6s-1.8-1-2.6-1.7
					c-1.7-1-3.3-2.1-4.8-3.9L368.3,98l-6.2-5c-0.6-2.3-1.4-4.7-2-6.3c-0.4-0.9-1-1.3-1.7-1.5c-0.6-0.2-1.3-0.2-1.9-0.2
					c-2.2-3.7-4.4-7.2-8.9-12.5c-1.7-6.6-2.5-13.4-5.7-18.9v-5.5l-0.1-0.1c0,0-1.5-2.5-3.9-3.1c-1.9-0.4-3.9-1.5-5.4-2.6
					c-0.8-0.6-1.4-1.1-1.8-1.6c-0.4-0.5-0.7-0.9-0.7-1.1c0-0.2-0.1-0.4-0.3-0.6c-0.2-0.1-0.5-0.1-0.6,0c-0.3,0.2-0.6,0.5-0.8,1
					c-0.5,0.9-0.8,2.4-0.4,4.1c0.7,3.2,1.1,7.1,1.1,9.5v0.1v0.1c3.3,9.7,7.1,15.4,10.8,19.2c0.5,2.2,1.3,4.1,1.5,6
					c0.5,4.7,2.8,7.8,4,10c2.6,4.6,5,6,7.1,8.8l3.3,13.4l2.7,5.9c-0.2,2.5-0.2,4.3,0,5.5c0.2,1.3,0.6,2.1,1.3,2.6h0.1h0.1
					c1.2,0.2,2.2,0.1,3.2,0.6s2.2,1.6,3.8,4.3c1.3,2.2,1.7,3.8,1.7,5.2c0,1.4-0.5,2.6-0.9,4.2l-4.9,0.1c-2.3-3.7-4.7-8.6-7.1-11.8
					c-1-1.3-2.1-2-2.9-2.5c-0.4-0.2-0.8-0.4-1.1-0.6c-0.3-0.2-0.4-0.3-0.5-0.4c-0.7-1.3-1.4-2.4-2.4-3.5c-1.2-1.2-2.4-2.4-3.1-3.7
					c-0.2-0.3-0.2-0.9,0-1.7c0.2-0.8,0.5-1.7,0.8-2.5c0.3-0.9,0.6-1.7,0.6-2.5c0-0.4,0-0.7-0.1-1.1c-0.1-0.3-0.3-0.6-0.6-0.8
					c-3.1-4.3-6.1-9-9.4-12.9l-0.1-0.1h-0.2c-3.5-0.3-6.7-2.7-9.1-5.5c-1.2-1.4-2.1-2.8-2.7-4.1c-0.6-1.2-0.9-2.3-0.9-2.8V83v-0.1
					c-0.1-0.3-0.1-0.5-0.1-0.6c0-0.1,0.1-0.1,0.2-0.2C324.3,82,324.8,82,325.3,82.1z"/>
			</g>
			<g>
				<path class="st0" d="M346.4,108.5C346.3,108.5,346.3,108.5,346.4,108.5L346.4,108.5C346.4,108.6,346.4,108.6,346.4,108.5z"/>
				<path class="st0" d="M309.5,28.3l19.2,1.6l1,2.9l0.2,0.1c3.7,1.4,7,3.2,10.4,5.2c6.1,3.5,12.1,6.8,17.8,8.8
					c5.6,2,10.7,2.8,14.9,1.4c2.1,0.4,4.3,1,6.2,1c0.1,0,0.3,0,0.4,0c1,0,2-0.3,2.8-0.8c0.7-0.5,1.2-1.4,1.5-2.5
					c5.3-0.8,10.3-0.9,14.7,0.2c1.3,1.9,4.5,5.9,8.7,9.8c1.1,1,2.6,1.5,3.6,2.4c1.6,9.6,7.2,15.1,13.9,19.1l0.4,0.2l0.1-0.4
					c0.1-0.4,0.3-0.8,0.5-1c0.2-0.3,0.5-0.5,1.2-0.6l0.3-0.1v-0.3c0.5-4.3,2.3-6.3,4.9-7.1c2.6-0.8,6.1-0.3,9.7,0.8
					c1.5,0.4,2.6,1.8,4.3,2.7c2.5,5.7,3.8,10.4,6.4,14.7c2,3.3,3.4,4.9,5.7,6.6c0,2.6,1.1,5.3,3.5,7.2c0.6,0.5,0.7,1,0.6,1.2
					c0,0.1-0.1,0.2-0.2,0.2c-0.1,0-0.1,0-0.2-0.1l-0.5,0.6c2.6,2,4.7,3.6,6.8,4.9c2.1,1.3,4.2,2.2,6.8,2.8c1.2,5,1.6,8.1,1.5,10.4
					c-0.1,2.3-0.8,3.8-2,5.8v-0.1c-1.5,1.8-1.6,4.2-1.2,6.7s1.2,5.1,1.4,7.5l9.4,32l0.1,0.1c3,2.7,4.8,6.2,5.3,10.2v0.1l0.1,0.1
					c2.3,3.2,5,5.7,10.8,7.1h-0.1c2.8,1.3,4.8,3.2,6.4,4.8l0.1,0.1h0.2c2.5-0.5,5-2.2,7.4-4.1c2.3-0.1,4.1,0.7,9.2-2.7
					c1.1-0.6,2.2-0.9,3.4-0.9c0.7,0,1.4,0.1,2.2,0.3c0.1,0.1,0.3,0.4,0.7,0.8c0.2,0.2,0.5,0.5,0.8,0.6c0.3,0.2,0.7,0.3,1,0.1
					c0.3-0.1,0.4-0.5,0.5-0.7c0-0.3,0-0.5-0.1-0.8c-0.1-0.3-0.2-0.5-0.2-0.6c1.7-2.2,4.4-3.7,6.6-5.4l0.2-0.1v-0.2
					c-0.3-3.5,1.3-6.3,2.7-9.3l6.1-2.8l21.8,3.5c0.2,3.5,0.4,6.9,0.1,9.9s-1.2,5.4-3.1,6.9c-2.2,0.5-3.3-0.1-3.8-0.5
					c-0.3-0.2-0.4-0.5-0.5-0.6c0,0,0-0.1-0.1-0.2h-0.1h-0.2l-0.2,0.1c0,0,0,0,0,0.1c0,0.1,0,0.1,0,0.1s0,0.1,0,0.1
					c0,0.1,0,0.1,0,0.2c-0.1,2.6-1,3.9-2.4,4.8c-1.4,0.9-3.5,1.2-6,1.4c-6,0.6-8.9,0.5-13.4,1.7l-0.3,0.1v0.3
					c0.2,1.7,0.1,2.9-0.1,3.7c-0.2,0.8-0.6,1.2-1,1.4c-0.4,0.2-0.7,0.3-1.1,0.3c-0.2,0-0.3,0-0.4,0c-0.1,0-0.1,0-0.2,0.1
					c0,0-0.1,0-0.1,0.1l-0.1,0.1v0.1v0.1v0.1c0,0.1,0,0.1,0,0.1c0.4,0.6,0.8,1.1,1.4,1.7c0.6,0.6,1.5,1.2,2.7,2.1
					c2.3,1.7,3.1,2.6,3.9,4.2c0.6,1.1,0.5,2.7-0.7,3.7c-1,0.8-2.4,1.1-3.8,1c-1.8-0.1-3.6,0.1-5.1,0.5s-2.6,1.1-3,2
					c-2.6,3.6-2.3,8.9-2.6,13.7c-5.9-2.9-8.9-8.7-14.9-13.3l-0.1-0.1H514c-2.9-0.2-5.6-1.5-8.2-3.1l-0.2-0.1l-17.3,8
					c-3.9-2.6-8.2-2.6-12.2-3.3c-2.8-1.5-5.5-3.5-8.4-5c-2.8-1.5-5.8-2.4-9.1-1.8c-2-2-4.3-3.2-6.7-4.2c-8-3.4-12.3-5.5-15.8-9.9
					l-0.1-0.2h-0.2c-3.3,0.5-6.8-1.3-10.3-3c-1.4-0.7-2.8-0.9-4.1-1.3c-1.6-3.8-4.6-6.8-8-9.5l-4.3-1.6c-3.5-3.5-5.6-7.1-6.1-11.9
					l-6.9-31v-0.1c-4.4-6.7-9.1-12.7-14-17.6c-0.3-1.5-0.4-2.3-0.4-3.8v-0.1l-0.1-0.1c-0.7-1.2-1.6-2-2.5-2.6s-1.8-1-2.6-1.7
					c-1.7-1-3.3-2.1-4.8-3.9L368.3,98l-6.2-5c-0.6-2.3-1.4-4.7-2-6.3c-0.4-0.9-1-1.3-1.7-1.5c-0.6-0.2-1.3-0.2-1.9-0.2
					c-2.2-3.7-4.4-7.2-8.9-12.5c-1.7-6.6-2.5-13.4-5.7-18.9v-5.5l-0.1-0.1c0,0-1.5-2.5-3.9-3.1c-1.9-0.4-3.9-1.5-5.4-2.6
					c-0.8-0.6-1.4-1.1-1.8-1.6c-0.4-0.5-0.7-0.9-0.7-1.1c0-0.2-0.1-0.4-0.3-0.6c-0.2-0.1-0.5-0.1-0.6,0c-0.3,0.2-0.6,0.5-0.8,1
					c-0.5,0.9-0.8,2.4-0.4,4.1c0.7,3.2,1.1,7.1,1.1,9.5v0.1v0.1c3.3,9.7,7.1,15.4,10.8,19.2c0.5,2.2,1.3,4.1,1.5,6
					c0.5,4.7,2.8,7.8,4,10c2.6,4.6,5,6,7.1,8.8l3.3,13.4l2.7,5.9c-0.2,2.5-0.2,4.3,0,5.5c0.2,1.3,0.6,2.1,1.3,2.6h0.1h0.1
					c1.2,0.2,2.2,0.1,3.2,0.6s2.2,1.6,3.8,4.3c1.3,2.2,1.7,3.8,1.7,5.2c0,1.4-0.5,2.6-0.9,4.2l-4.9,0.1c-2.3-3.7-4.7-8.6-7.1-11.8
					c-1-1.3-2.1-2-2.9-2.5c-0.4-0.2-0.8-0.4-1.1-0.6c-0.3-0.2-0.4-0.3-0.5-0.4c-0.7-1.3-1.4-2.4-2.4-3.5c-1.2-1.2-2.4-2.4-3.1-3.7
					c-0.2-0.3-0.2-0.9,0-1.7c0.2-0.8,0.5-1.7,0.8-2.5c0.3-0.9,0.6-1.7,0.6-2.5c0-0.4,0-0.7-0.1-1.1c-0.1-0.3-0.3-0.6-0.6-0.8
					c-3.1-4.3-6.1-9-9.4-12.9l-0.1-0.1h-0.2c-3.5-0.3-6.7-2.7-9.1-5.5c-1.2-1.4-2.1-2.8-2.7-4.1c-0.6-1.2-0.9-2.3-0.9-2.8V83v-0.1
					c-0.1-0.3-0.1-0.5-0.1-0.6c0-0.1,0.1-0.1,0.2-0.2c0.2-0.1,0.7-0.1,1.2,0c1,0.2,2.2,0.7,2.2,0.7l0.2,0.1l0.2-0.2
					c1.9-1.9,2.8-4.7,2-8.6V74v-0.1c-1.8-3.2-4.6-6-7.6-8.7l-3.6-4.5c-0.8-2.2-2-6.9-2-7c-0.7-3.2-1.1-6-2-9.6
					c-0.9-3.6-2.2-8.2-4.7-15.1L309.5,28.3z"/>
			</g>
		</g>
		<g>
			<g>
				<defs>
					<path id="SVGID_1_" d="M11.7,27.1v271.1h568.5V27.1H11.7z"/>
				</defs>
				<clipPath id="SVGID_00000084500009149473237130000014942927577536912285_">
					<use xlink:href="#SVGID_1_"  style="overflow:visible;"/>
				</clipPath>
				
					<g style="display:none;clip-path:url(#SVGID_00000084500009149473237130000014942927577536912285_);enable-background:new    ;">
					
						<image style="display:inline;overflow:visible;enable-background:new    ;" width="1256" height="599" id="image20" xlink:href="5A3D76A8.png"  transform="matrix(0.4527 0 0 0.4527 11.7302 27.1237)">
					</image>
				</g>
			</g>
		</g>
		<g id="g1340">
			<path id="path881" d="M34.9,88.7v37.5h47.9v-4.9H40.4V93.7h36.8v3.8h-31v4.9h36.6V88.8h-1.4L34.9,88.7L34.9,88.7z"/>
			<path id="path887" d="M88.9,88.7l3,2.4l19.7,16.3l-22.7,18.8H96l19.3-15.8l19.3,15.8h7.1L119,107.5l22.7-18.8h-7.1l-19.3,15.8
				L96,88.7H88.9z"/>
			<path id="path893" d="M147.8,71.4v54.9h5.6V93.7h36.8v32.6h5.6V88.8h-42.3V71.4H152H147.8z"/>
			<path id="path899" d="M204.4,80.1V85h19.7v-1.4v-3.5H204.4z M204.4,88.7v4.9h19.8v32.6h5.6V88.7h-1.4L204.4,88.7L204.4,88.7z"/>
			<path id="path905" d="M238.4,71.4v54.9h47.9V88.8h-36.6v4.9h31v27.6H244v-50h-1.4h-4.2V71.4z"/>
			<path id="path911" d="M294.8,80.1V85h19.7v-1.4v-3.5H294.8z M294.8,88.7v4.9h19.8v32.6h5.6V88.7h-1.4L294.8,88.7L294.8,88.7z"/>
			<path id="path917" d="M385.2,88.7v37.5h5.6V93.6h17v32.6h5.6V93.6h36.8v32.6h5.6V88.7h-1.4L385.2,88.7L385.2,88.7z"/>
			<path id="path923" d="M464.2,88.7v37.5h47.9v-4.9h-42.3V93.7h36.8v3.8h-31v4.9h36.6V88.8h-1.4L464.2,88.7L464.2,88.7z"/>
			<path id="path929" d="M518.2,88.7l3,2.4l19.7,16.3l-22.7,18.8h7.1l19.3-15.8l19.3,15.8h7.1l-22.7-18.8L571,88.6h-7.1l-19.3,15.8
				l-19.3-15.8h-7.1V88.7z"/>
			<g id="rect977" transform="translate(-0.01662034,-0.04155085)" inkscape:path-effect="#path-effect985">
				<path id="path981" inkscape:original-d="m 119.65718,88.052643 h 10.96463 v 3.633 h -10.96463 z" class="st3" d="M336.3,100.1
					h36.9l-4.9,10.3h-37L336.3,100.1z"/>
				
					<path id="path983" inkscape:original-d="m 119.04297,87.439453 v 0.613281 4.246094 h 12.19141 v -4.859375 z m 1.22851,1.226563 h 9.73633 v 2.40625 h -9.73633 z" class="st4" d="
					M335.1,98.4l-0.8,1.7l-5.7,12h41.1l6.5-13.8L335.1,98.4L335.1,98.4z M337.6,101.9h32.8l-3.2,6.8h-32.8L337.6,101.9z"/>
			</g>
		</g>
		<rect id="rect1326" x="33.8" y="139.7" class="st5" width="541.3" height="31.9"/>
		<g id="g1322">
			<g id="path1041" transform="scale(1.243547,0.80415134)">
				<path id="path1084" class="st1" d="M31,186.7v16.9h2.4v-14.5h5.4v14.5h2.4v-14.5h12.1v14.5h2.4v-16.9H55H31z"/>
				<path id="path1086" class="st1" d="M55,187.4v15.5h-1v-14.5H40.5v14.5h-1v-14.5h-6.8v14.5h-1v-15.5H55z"/>
			</g>
			<g id="path1043" transform="scale(1.243547,0.80415134)">
				<path id="path1090" class="st1" d="M58.1,186.7v16.9h0.7H75v-16.9h-2.4v14.5H60.5v-14.5H58.1z"/>
				<path id="path1092" class="st1" d="M58.8,202.9v-15.5h1V202h13.6v-14.5h1V203H58.8V202.9z"/>
			</g>
			<g id="path1045" transform="scale(1.243547,0.80415134)">
				<path id="path1096" class="st1" d="M77.5,186.7v16.9h16.9v-2.4H79.9v-12.1H92v1.5H81.4v2.4h13v-6.3h-0.7H77.5z"/>
				<path id="path1098" class="st1" d="M93.7,187.4v4.8H82.1v-1h10.7v-2.9H79.2V202h14.5v1H78.2v-15.5L93.7,187.4z"/>
			</g>
			<g id="path1047" transform="scale(1.243547,0.80415134)">
				<path id="path1102" class="st1" d="M96.9,179v24.7h16.9v-16.9h-13v2.4h10.7v12.1H99.2V179h-0.7H96.9z"/>
				<path id="path1104" class="st1" d="M98.5,179.7V202h13.6v-13.6h-10.7v-1H113v15.5H97.6v-23.2L98.5,179.7z"/>
			</g>
			<g id="path1049" transform="scale(1.243547,0.80415134)">
				<path id="path1108" class="st1" d="M116.2,179v24.7h9.2v-2.4h-6.8V179h-0.7H116.2z"/>
				<path id="path1110" class="st1" d="M117.9,179.7V202h6.8v1H117v-23.2L117.9,179.7z"/>
			</g>
			<g id="path1051" transform="scale(1.243547,0.80415134)">
				<path id="path1114" class="st1" d="M127.9,186.7v16.9h16.9v-2.4h-14.5v-12.1h12.1v1.5h-10.7v2.4h13v-6.3H144H127.9z"/>
				<path id="path1116" class="st1" d="M144.1,187.4v4.8h-11.6v-1h10.7v-2.9h-13.6V202h14.5v1h-15.5v-15.5L144.1,187.4z"/>
			</g>
			<g id="path1053" transform="scale(1.243547,0.80415134)">
				<path id="path1120" class="st1" d="M147.3,186.7v6.3h14.5v8.3h-14.5v2.4h16.9v-13h-14.5v-1.5h14.5v-2.4h-0.7L147.3,186.7
					L147.3,186.7z"/>
				<path id="path1122" class="st1" d="M163.5,187.4v1H149v2.9h14.5v11.6H148v-1h14.5v-9.7H148v-4.8H163.5z"/>
			</g>
			<g id="path1055" transform="scale(1.243547,0.80415134)">
				<path id="path1126" class="st1" d="M186,186.7v0.7v24h2.4v-22.3h12.1v12.1h-10.7v2.4h13v-16.9L186,186.7L186,186.7z"/>
				<path id="path1128" class="st1" d="M186.7,187.4h15.5v15.5h-11.6v-1h10.7v-13.6h-13.6v22.3h-1L186.7,187.4z"/>
			</g>
			<g id="path1057" transform="scale(1.243547,0.80415134)">
				<path id="path1132" class="st1" d="M205.4,186.7v2.4h14.5v12.1h-12.1V193h10.7v-2.4h-13v13h16.9v-0.7v-16.2L205.4,186.7
					L205.4,186.7z"/>
				<path id="path1134" class="st1" d="M221.6,202.9h-15.5v-11.6h11.6v1H207v9.7h13.6v-13.6h-14.5v-1h15.5L221.6,202.9z"/>
			</g>
			<g id="path1059" transform="scale(1.243547,0.80415134)">
				<path id="path1138" class="st1" d="M224.7,186.7v16.9h2.4v-14.5h14.5v-2.4H241H224.7z"/>
				<path id="path1140" class="st1" d="M241,187.4v1h-14.5v14.5h-1v-15.5H241z"/>
			</g>
			<g id="path1061" transform="scale(1.243547,0.80415134)">
				<path id="path1144" class="st1" d="M244.1,186.7v2.4h14.5v12.1h-12.1V193h10.7v-2.4h-13v13H261v-0.7v-16.2L244.1,186.7
					L244.1,186.7z"/>
				<path id="path1146" class="st1" d="M260.3,202.9h-15.5v-11.6h11.6v1h-10.7v9.7h13.6v-13.6h-14.5v-1h15.5V202.9z"/>
			</g>
			<g id="path1063" transform="scale(1.243547,0.80415134)">
				<path id="path1150" class="st1" d="M282.9,186.7v0.7v16.2h16.9v-2.4h-14.5v-12.1h14.5v-2.4L282.9,186.7L282.9,186.7z"/>
				<path id="path1152" class="st1" d="M283.6,187.4h15.5v1h-14.5V202h14.5v1h-15.5V187.4z"/>
			</g>
			<g id="path1065" transform="scale(1.243547,0.80415134)">
				<path id="path1156" class="st1" d="M302.2,186.7v16.9h16.9v-16.9h-0.7H302.2z M304.6,189.1h12.1v12.1h-12.1V189.1z"/>
				<path id="path1158" class="st1" d="M318.4,187.4v15.5h-15.5v-15.5H318.4z M303.9,188.4V202h13.6v-13.6H303.9z"/>
			</g>
			<g id="path1067" transform="scale(1.243547,0.80415134)">
				<path id="path1162" class="st1" d="M321.6,186.7v16.9h2.4v-14.5h5.4v14.5h2.4v-14.5h12.1v14.5h2.4v-16.9h-0.7H321.6z"/>
				<path id="path1164" class="st1" d="M345.6,187.4v15.5h-1v-14.5H331v14.5h-1v-14.5h-6.8v14.5h-1v-15.5H345.6z"/>
			</g>
			<g id="path1069" transform="scale(1.243547,0.80415134)">
				<path id="path1168" class="st1" d="M348.7,186.7v16.9h16.9v-2.4h-14.5v-12.1h12.1v1.5h-10.7v2.4h13v-6.3h-0.7H348.7z"/>
				<path id="path1170" class="st1" d="M364.9,187.4v4.8h-11.6v-1H364v-2.9h-13.6V202h14.5v1h-15.5v-15.5L364.9,187.4z"/>
			</g>
			<g id="path1071" transform="scale(1.243547,0.80415134)">
				<path id="path1174" class="st1" d="M368.1,186.7v16.9h2.4v-14.5H385v-2.4h-0.7H368.1z"/>
				<path id="path1176" class="st1" d="M384.3,187.4v1h-14.5v14.5h-1v-15.5H384.3z"/>
			</g>
			<g id="path1073" transform="scale(1.243547,0.80415134)">
				<path id="path1180" class="st1" d="M387.4,186.7v0.7v16.2h16.9v-2.4h-14.5v-12.1h14.5v-2.4L387.4,186.7L387.4,186.7z"/>
				<path id="path1182" class="st1" d="M388.1,187.4h15.5v1h-14.5V202h14.5v1h-15.5V187.4z"/>
			</g>
			<g id="path1075" transform="scale(1.243547,0.80415134)">
				<path id="path1186" class="st1" d="M406.8,182.9v2.4h7.2v-0.7v-1.7L406.8,182.9L406.8,182.9z M406.8,186.7v2.4h6.8v14.5h2.4
					v-16.9h-0.7H406.8z"/>
				<path id="path1188" class="st1" d="M413.3,184.5h-5.8v-1h5.8V184.5z M415.3,187.4v15.5h-1v-14.5h-6.8v-1H415.3z"/>
			</g>
			<g id="path1077" transform="scale(1.243547,0.80415134)">
				<path id="path1192" class="st1" d="M418.5,186.7v16.9h16.9v-16.9h-0.7H418.5z M420.9,189.1H433v12.1h-12.1V189.1z"/>
				<path id="path1194" class="st1" d="M434.7,187.4v15.5h-15.5v-15.5H434.7z M420.1,188.4V202h13.6v-13.6H420.1z"/>
			</g>
			<g id="path1079" transform="scale(1.243547,0.80415134)">
				<path id="path1198" class="st1" d="M437.8,186.7v6.3h14.5v8.3h-14.5v2.4h16.9v-13h-14.5v-1.5h14.5v-2.4H454L437.8,186.7
					L437.8,186.7z"/>
				<path id="path1200" class="st1" d="M454,187.4v1h-14.5v2.9H454v11.6h-15.5v-1H453v-9.7h-14.5v-4.8H454z"/>
			</g>
		</g>
	</g>
</g>
</svg>
